
<svg id="calendario" xmlns="http://www.w3.org/2000/svg" width="16.89" height="18.016" viewBox="0 0 16.89 18.016">
  <path id="Tracciato_130" data-name="Tracciato 130" d="M11.823,3.063V4.076a.676.676,0,1,0,1.351,0V3.063h1.07a1.3,1.3,0,0,1,1.3,1.295v11a1.3,1.3,0,0,1-1.3,1.295H2.635a1.285,1.285,0,0,1-1.284-1.295v-11A1.285,1.285,0,0,1,2.635,3.063H3.716V4.076a.676.676,0,1,0,1.351,0V3.063ZM4.391,0a.678.678,0,0,0-.675.676V1.7H2.635A2.65,2.65,0,0,0,0,4.358v11a2.65,2.65,0,0,0,2.635,2.657h11.62a2.651,2.651,0,0,0,2.635-2.657v-11A2.65,2.65,0,0,0,14.255,1.7H13.174V.676a.676.676,0,1,0-1.351,0V1.7H5.067V.676A.678.678,0,0,0,4.391,0Z" fill="#84a8e6" fill-rule="evenodd"/>
  <path id="Tracciato_131" data-name="Tracciato 131" d="M30.245,58.819a1.019,1.019,0,0,1,0,2.038,1.019,1.019,0,0,1,0-2.038Z" transform="translate(-25.516 -51.342)" fill="#918470"/>
  <path id="Tracciato_132" data-name="Tracciato 132" d="M59.478,58.819a1.019,1.019,0,1,1-1.013,1.025A1.019,1.019,0,0,1,59.478,58.819Z" transform="translate(-51.033 -51.342)" fill="#918470"/>
  <path id="Tracciato_133" data-name="Tracciato 133" d="M88.709,58.819a1.026,1.026,0,0,1,1.013,1.025,1.014,1.014,0,1,1-1.013-1.025Z" transform="translate(-76.548 -51.342)" fill="#918470"/>
  <path id="Tracciato_134" data-name="Tracciato 134" d="M30.245,88.228a1.019,1.019,0,1,1-1.013,1.025A1.019,1.019,0,0,1,30.245,88.228Z" transform="translate(-25.516 -77.013)" fill="#918470"/>
  <path id="Tracciato_135" data-name="Tracciato 135" d="M59.478,88.228a1.019,1.019,0,1,1-1.013,1.025A1.019,1.019,0,0,1,59.478,88.228Z" transform="translate(-51.033 -77.013)" fill="#918470"/>
  <path id="Tracciato_136" data-name="Tracciato 136" d="M88.709,88.228a1.019,1.019,0,0,1,0,2.038,1.019,1.019,0,0,1,0-2.038Z" transform="translate(-76.548 -77.013)" fill="#918470"/>
</svg>
