<svg xmlns="http://www.w3.org/2000/svg" width="161.65" height="61.979" viewBox="0 0 161.65 61.979">
  <g id="logo-bianco" transform="translate(-1747.282 -2130.121)">
    <g id="Raggruppa_705" data-name="Raggruppa 705" transform="translate(1208.861 2335.148)">
      <path id="Tracciato_28940" data-name="Tracciato 28940" d="M598.226-84.027A15.792,15.792,0,0,0,608.41-72.109c8.992,3.25,9.859,1.517,9.859,1.517l-13.651-9.1L620-72.109s1.083-6.175-7.259-8.992A53.114,53.114,0,0,0,598.226-84.027Z" transform="translate(-6.471 -121)" fill="#84a8e6"/>
      <path id="Tracciato_28941" data-name="Tracciato 28941" d="M620.048-84.027a15.792,15.792,0,0,1-10.184,11.917c-8.992,3.25-9.859,1.517-9.859,1.517l13.651-9.1-15.384,7.584s-1.083-6.175,7.259-8.992A53.114,53.114,0,0,1,620.048-84.027Z" transform="translate(27.506 -121)" fill="#84a8e6"/>
      <path id="Sottrazione_1" data-name="Sottrazione 1" d="M10.343,9.936h0c-.311,0-.628-.009-.944-.026C2.677,9.543.625,8.476,0,7.873a13.526,13.526,0,0,0,2.8-1L15.852,4.411,5.731,4.984c.362-.3.719-.624,1.06-.965A14.72,14.72,0,0,0,9.659,0,59.893,59.893,0,0,1,19.68,1.735,35.7,35.7,0,0,1,23.429,2.92l0,0a15.3,15.3,0,0,1-3.2,3.5,15.767,15.767,0,0,1-4.081,2.412A15.535,15.535,0,0,1,10.343,9.936Z" transform="translate(636.884 -199.785)" fill="#84a8e6"/>
      <path id="Sottrazione_2" data-name="Sottrazione 2" d="M10.343,0h0c-.311,0-.628.009-.944.026C2.677.393.625,1.46,0,2.063a13.526,13.526,0,0,1,2.8,1L15.852,5.525,5.731,4.952c.362.3.719.624,1.06.965A14.72,14.72,0,0,1,9.659,9.936,59.893,59.893,0,0,0,19.68,8.2a35.7,35.7,0,0,0,3.749-1.184l0,0a15.3,15.3,0,0,0-3.2-3.5A15.767,15.767,0,0,0,16.141,1.1,15.535,15.535,0,0,0,10.343,0Z" transform="translate(602.095 -189.849) rotate(180)" fill="#84a8e6"/>
      <circle id="Ellisse_17" data-name="Ellisse 17" cx="6.023" cy="6.023" r="6.023" transform="translate(613.687 -192.964)" fill="#84a8e6"/>
    </g>
    <path id="Tracciato_28946" data-name="Tracciato 28946" d="M112.991,18h-8.125v-.459h.957V11.4h-2.295v6.143h1.016V18H96.282v-.459h1.543V5.363H96.282V4.9h8.262v.459h-1.016v5.6h2.295v-5.6h-.957V4.9h8.125v.459h-1.562V17.541h1.563Zm6.631-8.262a6.37,6.37,0,0,1,4.106,1.221,3.971,3.971,0,0,1,1.519,3.262,3.448,3.448,0,0,1-1.528,2.944,6.917,6.917,0,0,1-4.116,1.1,6.657,6.657,0,0,1-4.062-1.138,3.545,3.545,0,0,1-1.533-2.983,3.871,3.871,0,0,1,1.533-3.193A6.4,6.4,0,0,1,119.622,9.738Zm.908,6.885V11.34a1.742,1.742,0,0,0-.2-.972.828.828,0,0,0-.713-.269.8.8,0,0,0-.713.3,1.878,1.878,0,0,0-.205,1.021v5.205a1.785,1.785,0,0,0,.19.962.73.73,0,0,0,.649.278.916.916,0,0,0,.767-.283A1.593,1.593,0,0,0,120.53,16.623Zm12.813-1.5a4.395,4.395,0,0,1-1.5,2.427,3.95,3.95,0,0,1-2.134.552q-2.764,0-2.764-2.139V10.275h-.977V9.885a5.654,5.654,0,0,0,3.188-1.475A5.208,5.208,0,0,0,130.95,5.9h.439V9.885h1.3v.391h-1.3V15.6a3.123,3.123,0,0,0,.073.879.268.268,0,0,0,.269.186q.537,0,1.094-1.66ZM143.87,13.9h-5.205v1.738a4.958,4.958,0,0,0,.1,1.182,1.075,1.075,0,0,0,1.084.8,3.552,3.552,0,0,0,1.841-.586,6,6,0,0,0,1.7-1.592l.313.342a5.579,5.579,0,0,1-4.561,2.48,5.72,5.72,0,0,1-3.7-1.187,3.626,3.626,0,0,1-1.479-2.935A3.937,3.937,0,0,1,135.477,11a5.675,5.675,0,0,1,3.774-1.265,4.494,4.494,0,0,1,3.052,1.118A4.8,4.8,0,0,1,143.87,13.9Zm-3.359-.4V11.184q0-1.064-.879-1.064-.967,0-.967,1.064V13.5Zm10.82,4.5h-6.924v-.4h1.221V5.3h-1.221V4.9h3.662a6.789,6.789,0,0,0,2-.244V17.6h1.26Zm22.6-12.637q-2.08.166-2.08,3.672V18h-3.154L160.931,7.3v6.24q0,3.984,2.441,4V18h-5.059v-.459a1.752,1.752,0,0,0,1.606-1.074,5.2,5.2,0,0,0,.474-2.227V6.564l-.859-1.2h-1.221V4.9h7.578l5.439,7.5V9.2a5.951,5.951,0,0,0-.547-2.891,1.785,1.785,0,0,0-1.65-.947h-.439V4.9h5.234ZM184.476,13.9h-5.205v1.738a4.958,4.958,0,0,0,.1,1.182,1.075,1.075,0,0,0,1.084.8,3.552,3.552,0,0,0,1.841-.586,6,6,0,0,0,1.7-1.592l.313.342a5.579,5.579,0,0,1-4.561,2.48,5.72,5.72,0,0,1-3.7-1.187,3.626,3.626,0,0,1-1.479-2.935A3.937,3.937,0,0,1,176.082,11a5.675,5.675,0,0,1,3.774-1.265,4.494,4.494,0,0,1,3.052,1.118A4.8,4.8,0,0,1,184.476,13.9Zm-3.359-.4V11.184q0-1.064-.879-1.064-.967,0-.967,1.064V13.5Zm20.479-3.223a1.671,1.671,0,0,0-.84.488,5.643,5.643,0,0,0-.454.645,16.923,16.923,0,0,0-.776,1.777L197.571,18H195.1l-1.982-4.678L191.233,18h-2.461l-3.252-7.725h-.605V9.885h5.957v.391H190.2l1.875,4.443.742-2.021-1-2.422h-.586V9.885h6.338v.391H196.5l1.895,4.443q.918-2.412.991-2.637a1.6,1.6,0,0,0,.073-.5,1.2,1.2,0,0,0-1.279-1.309V9.885h3.418Zm19.063-4.912h-1.543v8.779a5.429,5.429,0,0,1-.229,1.777,2.9,2.9,0,0,1-.947,1.221,5.571,5.571,0,0,1-2.026.952,10.552,10.552,0,0,1-2.852.366,5.112,5.112,0,0,1-3.457-.967,2.941,2.941,0,0,1-1.084-2.256,1.962,1.962,0,0,1,.605-1.479,2.125,2.125,0,0,1,1.533-.581,1.732,1.732,0,0,1,1.3.532,1.87,1.87,0,0,1,.513,1.353,1.928,1.928,0,0,1-.581,1.426,1.989,1.989,0,0,1-1.46.576,2.86,2.86,0,0,1-.635-.078l-.039.039a2.473,2.473,0,0,0,1.8.752q1.963,0,1.963-2.539L213.44,7.18V5.363h-1.826V4.9h9.043Zm6.494,4.375a6.37,6.37,0,0,1,4.106,1.221,3.971,3.971,0,0,1,1.519,3.262,3.448,3.448,0,0,1-1.528,2.944,6.917,6.917,0,0,1-4.116,1.1,6.657,6.657,0,0,1-4.062-1.138,3.545,3.545,0,0,1-1.533-2.983,3.871,3.871,0,0,1,1.533-3.193A6.4,6.4,0,0,1,227.151,9.738Zm.908,6.885V11.34a1.742,1.742,0,0,0-.2-.972.828.828,0,0,0-.713-.269.8.8,0,0,0-.713.3,1.878,1.878,0,0,0-.205,1.021v5.205a1.785,1.785,0,0,0,.19.962.73.73,0,0,0,.649.278.916.916,0,0,0,.767-.283A1.593,1.593,0,0,0,228.06,16.623ZM240.257,18h-6.924v-.4h1.221V5.3h-1.221V4.9H237a6.789,6.789,0,0,0,2-.244V17.6h1.26ZM244.4,4.66a1.906,1.906,0,0,1,1.289.405,1.4,1.4,0,0,1,.469,1.118,1.592,1.592,0,0,1-.806,1.289,3.185,3.185,0,0,1-1.88.566,2,2,0,0,1-1.289-.391,1.25,1.25,0,0,1-.488-1.025,1.685,1.685,0,0,1,.8-1.382A3.149,3.149,0,0,1,244.4,4.66ZM247.552,18h-7.061v-.4h1.328V10.275h-1.328V9.885h3.3a11.533,11.533,0,0,0,2.461-.264V17.6h1.3Zm10.381-4.1h-5.205v1.738a4.958,4.958,0,0,0,.1,1.182,1.075,1.075,0,0,0,1.084.8,3.552,3.552,0,0,0,1.841-.586,6,6,0,0,0,1.7-1.592l.313.342a5.579,5.579,0,0,1-4.561,2.48,5.72,5.72,0,0,1-3.7-1.187,3.626,3.626,0,0,1-1.479-2.935A3.937,3.937,0,0,1,249.539,11a5.675,5.675,0,0,1,3.774-1.265,4.494,4.494,0,0,1,3.052,1.118A4.8,4.8,0,0,1,257.933,13.9Zm-3.359-.4V11.184q0-1.064-.879-1.064-.967,0-.967,1.064V13.5Z" transform="translate(1651 2158)" fill="#fff"/>
    <path id="Tracciato_28947" data-name="Tracciato 28947" d="M113.83,7.6h4.8V6.8h-4.8ZM118.06,4v7h.85V4Zm-4.7,0v7h.85V4Zm11.65,3.5a2.85,2.85,0,0,1,.345-1.41,2.632,2.632,0,0,1,4.61,0,2.85,2.85,0,0,1,.345,1.41,2.85,2.85,0,0,1-.345,1.41,2.635,2.635,0,0,1-4.61,0A2.85,2.85,0,0,1,125.01,7.5Zm-.9,0a3.775,3.775,0,0,0,.265,1.42,3.419,3.419,0,0,0,.745,1.145,3.479,3.479,0,0,0,1.13.76,3.765,3.765,0,0,0,2.825,0,3.493,3.493,0,0,0,1.125-.76,3.419,3.419,0,0,0,.745-1.145,3.95,3.95,0,0,0,0-2.845,3.431,3.431,0,0,0-.745-1.14,3.493,3.493,0,0,0-1.125-.76,3.765,3.765,0,0,0-2.825,0,3.479,3.479,0,0,0-1.13.76,3.431,3.431,0,0,0-.745,1.14A3.764,3.764,0,0,0,124.11,7.5Zm11.3-2.7h1.8V11h.85V4.8h1.8V4h-4.45Zm9.82,6.2h3.53v-.8h-3.53Zm0-6.2h3.53V4h-3.53Zm0,2.8h3.33V6.8h-3.33ZM144.76,4v7h.85V4Zm9.5,0v7h3.6v-.8h-2.75V4Zm16.93,3.16L174.55,11h.96l-3.7-4.25q-.3-.35-.57-.66a.98.98,0,0,1-.27-.65.825.825,0,0,1,.23-.61.865.865,0,0,1,.64-.23.925.925,0,0,1,.47.11.773.773,0,0,1,.295.3.916.916,0,0,1,.1.45,1.049,1.049,0,0,1-.325.695,3.638,3.638,0,0,1-.885.675q-.2.11-.48.245a6.139,6.139,0,0,0-.57.315,2.856,2.856,0,0,0-.535.43,2.092,2.092,0,0,0-.4.58,1.794,1.794,0,0,0-.155.77,1.665,1.665,0,0,0,.325,1.025,2.134,2.134,0,0,0,.84.67,2.584,2.584,0,0,0,1.085.235,2.983,2.983,0,0,0,1.23-.25,4.285,4.285,0,0,0,1.04-.66,7.18,7.18,0,0,0,.9-.925q.42-.515.82-1.035l-.62-.39q-.36.49-.745.94a7.578,7.578,0,0,1-.795.805,3.759,3.759,0,0,1-.855.565,2.143,2.143,0,0,1-.925.21,1.744,1.744,0,0,1-.73-.15,1.26,1.26,0,0,1-.525-.43,1.126,1.126,0,0,1-.2-.66,1.145,1.145,0,0,1,.18-.65,1.848,1.848,0,0,1,.465-.475,4.806,4.806,0,0,1,.6-.37q.32-.165.59-.325a5.721,5.721,0,0,0,.62-.425,2.953,2.953,0,0,0,.46-.45,1.957,1.957,0,0,0,.29-.475,1.263,1.263,0,0,0,.1-.49,1.552,1.552,0,0,0-.2-.775,1.535,1.535,0,0,0-.575-.575,1.759,1.759,0,0,0-.9-.22,1.975,1.975,0,0,0-.885.19,1.463,1.463,0,0,0-.6.54,1.508,1.508,0,0,0-.22.82,1.32,1.32,0,0,0,.2.7,3.063,3.063,0,0,0,.45.575Q171.03,6.97,171.19,7.16Zm17.57.39,2.4,3.45h1.05l-2.5-3.45ZM187.51,4v7h.85V4Zm.47.75h1.43a1.87,1.87,0,0,1,.795.16,1.26,1.26,0,0,1,.54.46,1.311,1.311,0,0,1,.195.73,1.311,1.311,0,0,1-.195.73,1.26,1.26,0,0,1-.54.46,1.87,1.87,0,0,1-.795.16h-1.43V8.2h1.43a2.79,2.79,0,0,0,1.215-.255,2.062,2.062,0,0,0,.85-.73A1.97,1.97,0,0,0,191.79,6.1a1.964,1.964,0,0,0-.315-1.12,2.075,2.075,0,0,0-.85-.725A2.79,2.79,0,0,0,189.41,4h-1.43Zm9.6,6.25h3.53v-.8h-3.53Zm0-6.2h3.53V4h-3.53Zm0,2.8h3.33V6.8h-3.33ZM197.11,4v7h.85V4Zm9.76,4.88-.68.46a3.887,3.887,0,0,0,.6.865,2.888,2.888,0,0,0,.85.65,2.306,2.306,0,0,0,1.055.245,2.337,2.337,0,0,0,.8-.14,2.227,2.227,0,0,0,.69-.4,1.866,1.866,0,0,0,.48-.63,1.917,1.917,0,0,0,.175-.83,1.849,1.849,0,0,0-.17-.825,2,2,0,0,0-.435-.59,2.6,2.6,0,0,0-.575-.4,4.855,4.855,0,0,0-.59-.26,5.13,5.13,0,0,1-.965-.425,1.463,1.463,0,0,1-.505-.46,1,1,0,0,1-.15-.535.874.874,0,0,1,.26-.615,1.1,1.1,0,0,1,.83-.275,1.4,1.4,0,0,1,.7.16,1.647,1.647,0,0,1,.485.41,2.88,2.88,0,0,1,.33.51l.73-.42a2.828,2.828,0,0,0-.47-.705,2.44,2.44,0,0,0-.725-.55,2.177,2.177,0,0,0-.995-.215,2.276,2.276,0,0,0-1.05.235,1.8,1.8,0,0,0-.72.645,1.7,1.7,0,0,0-.26.93,1.635,1.635,0,0,0,.185.81,1.821,1.821,0,0,0,.475.555,3.041,3.041,0,0,0,.61.37q.32.145.58.235a6.747,6.747,0,0,1,.755.315,1.638,1.638,0,0,1,.575.455,1.181,1.181,0,0,1,.22.75,1.022,1.022,0,0,1-.34.79,1.284,1.284,0,0,1-.9.31,1.541,1.541,0,0,1-.75-.18,2.044,2.044,0,0,1-.6-.5A5.213,5.213,0,0,1,206.87,8.88Zm9.72-1.38a2.85,2.85,0,0,1,.345-1.41,2.632,2.632,0,0,1,4.61,0,2.85,2.85,0,0,1,.345,1.41,2.85,2.85,0,0,1-.345,1.41,2.635,2.635,0,0,1-4.61,0A2.85,2.85,0,0,1,216.59,7.5Zm-.9,0a3.775,3.775,0,0,0,.265,1.42,3.419,3.419,0,0,0,.745,1.145,3.479,3.479,0,0,0,1.13.76,3.765,3.765,0,0,0,2.825,0,3.493,3.493,0,0,0,1.125-.76,3.419,3.419,0,0,0,.745-1.145,3.95,3.95,0,0,0,0-2.845,3.431,3.431,0,0,0-.745-1.14,3.493,3.493,0,0,0-1.125-.76,3.765,3.765,0,0,0-2.825,0,3.479,3.479,0,0,0-1.13.76,3.431,3.431,0,0,0-.745,1.14A3.764,3.764,0,0,0,215.69,7.5Zm13.55.05,2.4,3.45h1.05l-2.5-3.45ZM227.99,4v7h.85V4Zm.47.75h1.43a1.87,1.87,0,0,1,.795.16,1.26,1.26,0,0,1,.54.46,1.311,1.311,0,0,1,.195.73,1.311,1.311,0,0,1-.195.73,1.26,1.26,0,0,1-.54.46,1.87,1.87,0,0,1-.795.16h-1.43V8.2h1.43a2.79,2.79,0,0,0,1.215-.255,2.062,2.062,0,0,0,.85-.73A1.97,1.97,0,0,0,232.27,6.1a1.964,1.964,0,0,0-.315-1.12,2.075,2.075,0,0,0-.85-.725A2.79,2.79,0,0,0,229.89,4h-1.43Zm8.43.05h1.8V11h.85V4.8h1.8V4h-4.45Z" transform="translate(1651 2181)" fill="#fff"/>
  </g>
</svg>